<svg width="125" height="32" viewBox="0 0 125 32" fill="none" xmlns="http://www.w3.org/2000/svg">
<path d="M45.1301 15.9746H39.2381V3.58095H45.0032C47.5428 3.58095 49.0921 4.85079 49.0921 6.78095V6.80635C49.0921 8.20318 48.3555 8.99048 47.4666 9.47302C48.8889 10.0317 49.7778 10.8444 49.7778 12.5206V12.546C49.7778 14.8571 47.9492 15.9746 45.1301 15.9746ZM46.3746 7.26349C46.3746 6.4508 45.7397 5.99365 44.5969 5.99365H41.9048V8.60952H44.419C45.6127 8.60952 46.3746 8.22857 46.3746 7.28889V7.26349ZM47.0603 12.2159C47.0603 11.3778 46.4508 10.8698 45.0539 10.8698H41.9048V13.5873H45.1556C46.3492 13.5873 47.0857 13.1556 47.0857 12.2413V12.2159H47.0603ZM52.7746 15.9746V3.58095H55.4921V15.9746H52.7746ZM67.8349 15.9746L61.8413 8.10159V15.9746H59.1492V3.58095H61.6635L67.4794 11.2254V3.58095H70.1714V15.9746H67.8349ZM82.4127 15.9746L81.2698 13.2064H76.0381L74.8952 15.9746H72.127L77.4349 3.47936H79.9492L85.2571 15.9746H82.4127ZM78.654 6.78095L77.0032 10.7937H80.3048L78.654 6.78095ZM95.9492 15.9746L89.9556 8.10159V15.9746H87.2635V3.58095H89.7778L95.5936 11.2254V3.58095H98.2857V15.9746H95.9492ZM107.251 16.2032C103.594 16.2032 100.902 13.3841 100.902 9.82857V9.80318C100.902 6.27302 103.568 3.40317 107.378 3.40317C109.714 3.40317 111.111 4.19047 112.254 5.30794L110.527 7.31429C109.562 6.45079 108.597 5.91746 107.352 5.91746C105.27 5.91746 103.746 7.64444 103.746 9.77778V9.80318C103.746 11.9365 105.219 13.6889 107.352 13.6889C108.775 13.6889 109.638 13.1302 110.603 12.2413L112.33 13.9937C111.06 15.3397 109.664 16.2032 107.251 16.2032ZM114.54 15.9746V3.58095H123.886V6.01905H117.257V8.53334H123.098V10.9714H117.257V13.5873H123.987V16.0254H114.54V15.9746ZM68.8762 28.5206C66.3111 28.5206 64.4064 26.5397 64.4064 24C64.4064 21.4857 66.2857 19.454 68.927 19.454C70.5524 19.454 71.5174 20.0127 72.3555 20.8254L71.3651 21.9683C70.654 21.3079 69.9175 20.8762 68.9016 20.8762C67.2254 20.8762 66.0063 22.2476 66.0063 23.9746C66.0063 25.7016 67.2254 27.0984 68.9016 27.0984C69.9683 27.0984 70.6794 26.6667 71.4159 25.9556L72.4064 26.946C71.5175 27.9111 70.527 28.5206 68.8762 28.5206ZM75.9873 24.6857V28.3937H74.4381V19.6063H75.9873V23.2635H80.1778V19.6063H81.727V28.3937H80.1778V24.6857H75.9873ZM92.7492 28.3683H91.1238L90.2349 26.2603H86.0952L85.1809 28.3683H83.6063L87.4666 19.5302H88.8889L92.7492 28.3683ZM88.1524 21.3841L86.654 24.8889H89.6762L88.1524 21.3841ZM100.267 28.3683L98.108 25.3206H96.1778V28.3683H94.6286V19.581H98.5397C100.546 19.581 101.79 20.6476 101.79 22.3746C101.79 23.8222 100.927 24.7111 99.708 25.0413L102.07 28.3683H100.267ZM98.4127 21.0032H96.1778V23.9492H98.4381C99.5302 23.9492 100.241 23.3651 100.241 22.4762C100.241 21.5111 99.5556 21.0032 98.4127 21.0032ZM105.778 19.6063V28.3937H104.229V19.6063H105.778ZM112.076 28.3683H110.527V21.0286H107.733V19.6063H114.844V21.0286H112.051V28.3683H112.076ZM121.397 28.3683H119.848V24.9143L116.368 19.6063H118.197L120.66 23.4921L123.149 19.6063H124.927L121.448 24.8889V28.3683H121.397ZM60.2667 23.2635H39.2381V24.7365H60.2667V23.2635ZM3.60634 12.3683L0 15.9746L3.60634 19.581L7.21267 15.9746L3.60634 12.3683ZM16 7.2127L22.1968 13.4095L25.8032 9.80318L16 0L6.1968 9.80318L9.8032 13.4095L16 7.2127ZM28.3937 12.3683L24.7873 15.9746L28.3937 19.581L32 15.9746L28.3937 12.3683ZM16 24.7619L9.8032 18.5651L6.1968 22.1714L16 32L25.8032 22.1968L22.1968 18.5905L16 24.7619ZM16 19.6063L19.6063 16L16 12.3937L12.3937 16L16 19.6063Z" fill="#F0B90B"/>
</svg>
